<svg width="480" height="321" viewBox="0 0 480 321" fill="none" xmlns="http://www.w3.org/2000/svg">
<path fill-rule="evenodd" clip-rule="evenodd" d="M353.3 137.467C353.875 135.663 355.552 134.438 357.446 134.438H419.072C422.743 134.438 424.765 130.171 422.44 127.329L409.324 111.298C408.91 110.793 408.292 110.5 407.639 110.5H333.518C331.619 110.5 329.94 111.731 329.368 113.542L319.448 144.956H110.536L92.0583 172.98C90.4345 175.443 91.6792 178.773 94.52 179.568L121.161 187.016C122.292 187.332 123.469 186.694 123.822 185.575L133.099 156.199H159.213L147.862 192.145C147.491 193.319 148.166 194.565 149.351 194.897L169.152 200.433C170.283 200.749 171.46 200.111 171.813 198.992L185.327 156.199H211.441L195.853 205.562C195.482 206.735 196.157 207.982 197.342 208.313L217.143 213.849C218.274 214.165 219.451 213.528 219.804 212.409L237.555 156.199H263.669L243.844 218.979C243.473 220.152 244.148 221.399 245.333 221.73L265.134 227.266C266.265 227.582 267.442 226.945 267.796 225.826L289.783 156.199H315.897L292.052 231.71C291.609 233.113 292.656 234.541 294.127 234.541H319.139C321.033 234.541 322.709 233.317 323.285 231.512L353.3 137.467ZM450.018 197.547C457.229 197.547 463.075 203.393 463.075 210.604V245.422V262.832C465.478 262.832 467.427 264.78 467.427 267.184V280.241C467.427 282.644 465.478 284.593 463.075 284.593H458.722H445.665V275.889C445.665 247.044 422.282 223.661 393.437 223.661C364.593 223.661 341.209 247.044 341.209 275.889V284.593H249.81V275.889C249.81 264.519 246.177 253.997 240.008 245.422H341.209V197.547V193.999C341.209 193.467 341.307 192.94 341.497 192.443L358.653 147.646C359.943 144.278 363.176 142.054 366.782 142.054H400.93C405.344 142.054 409.059 145.358 409.575 149.742L415.199 197.547H450.018ZM145.354 275.889V284.593C140.547 284.593 136.65 280.696 136.65 275.889V254.127C136.65 249.32 140.547 245.422 145.354 245.422H155.156C148.988 253.997 145.354 264.519 145.354 275.889ZM347.738 193.194H409.759L404.775 151.333C404.514 149.143 402.658 147.495 400.453 147.495H366.108C364.235 147.495 362.571 148.694 361.979 150.471L347.738 193.194ZM197.582 320.5C221.619 320.5 241.106 301.014 241.106 276.977C241.106 252.939 221.619 233.453 197.582 233.453C173.545 233.453 154.059 252.939 154.059 276.977C154.059 301.014 173.545 320.5 197.582 320.5ZM197.582 255.215C185.564 255.215 175.821 264.958 175.821 276.977C175.821 288.995 185.564 298.738 197.582 298.738C209.601 298.738 219.344 288.995 219.344 276.977C219.344 264.958 209.601 255.215 197.582 255.215ZM393.437 320.5C417.475 320.5 436.961 301.014 436.961 276.977C436.961 252.939 417.475 233.453 393.437 233.453C369.4 233.453 349.914 252.939 349.914 276.977C349.914 301.014 369.4 320.5 393.437 320.5ZM393.437 255.215C381.419 255.215 371.676 264.958 371.676 276.977C371.676 288.995 381.419 298.738 393.437 298.738C405.456 298.738 415.199 288.995 415.199 276.977C415.199 264.958 405.456 255.215 393.437 255.215Z" fill="#72706F"/>
<path d="M82.2455 245.422C64.8362 251.951 52.4864 246.689 47.4268 234.541C-22.2087 245.422 25.6673 158.376 64.8361 206.251C88.0788 205.592 96.1595 208.601 99.6548 221.484C138.828 236.718 119.242 265.008 82.2455 245.422Z" fill="#0093DD"/>
</svg>
