<svg width="480" height="321" viewBox="0 0 480 321" fill="none" xmlns="http://www.w3.org/2000/svg">
<path fill-rule="evenodd" clip-rule="evenodd" d="M261.67 214.846L306.14 200.64L407.354 232.003V177.556L359.41 149.145V177.556L311.467 149.145V177.556L261.67 149.145V214.846Z" fill="#F9FAFA"/>
<path fill-rule="evenodd" clip-rule="evenodd" d="M306.14 200.64L261.67 214.846V149.145L311.467 177.556V149.145L359.411 177.556V149.145L407.354 177.556V232.003L306.14 200.64ZM355.859 171.324V142.912L410.906 175.533V236.821L306.156 204.363L258.119 219.709V143.03L307.915 171.441V142.912L355.859 171.324Z" fill="#A3ACB5"/>
<path fill-rule="evenodd" clip-rule="evenodd" d="M419.784 248.584L306.14 214.846L178.289 252.135V241.481L215.579 229.569L171.187 214.846L57.5421 248.939V307.182H190.719V319.612H267.074L283.056 305.406V271.668C283.056 269.707 284.646 268.117 286.607 268.117H327.448V305.406H419.784V248.584ZM258.196 269.892V285.874H231.56V269.892H258.196ZM380.719 269.892V285.874H354.083V269.892H380.719Z" fill="#DEDEDD"/>
<path d="M283.056 305.406H327.448V268.117H286.607C284.646 268.117 283.056 269.707 283.056 271.668V305.406Z" fill="#0093DD"/>
<path d="M258.196 285.874V269.892H231.56V285.874H258.196Z" fill="white"/>
<path d="M380.719 285.874V269.892H354.083V285.874H380.719Z" fill="white"/>
<path d="M267.074 319.612H419.784V305.406H327.448H283.056L267.074 319.612Z" fill="#72706F"/>
<path d="M57.5421 307.182V319.612H190.719V307.182H57.5421Z" fill="#72706F"/>
<path d="M148.103 211.117L139.224 92.3226H96.6074L84.1776 230.294L148.103 211.117Z" fill="#AAA9A9"/>
<path d="M171.187 204.191L231.56 224.464L235.112 223.329L222.682 65.6872H171.187L159.349 207.743L171.187 204.191Z" fill="#AAA9A9"/>
<path d="M279.504 188.21H293.71V197.089H279.504V188.21Z" fill="#DEDEDD"/>
<path d="M329.224 188.21H343.429V197.089H329.224V188.21Z" fill="#DEDEDD"/>
<path d="M377.167 188.21H391.373V197.089H377.167V188.21Z" fill="#DEDEDD"/>
<path d="M212.028 56.8151C192.495 76.3434 171.187 42.6052 197.822 37.2825C194.271 19.5211 199.598 12.4183 217.355 15.9741C217.355 -1.78719 235.112 -3.56293 243.99 7.09564C258.196 1.76228 268.85 8.86491 261.747 26.6283C268.85 28.404 268.85 37.2825 258.196 46.1609C254.644 56.8151 245.854 68.9484 231.56 55.0394C223.588 61.2955 219.241 62.8627 212.028 56.8151Z" fill="#0093DD"/>
<path d="M112.589 69.2386C111.463 58.796 113.306 54.7671 126.794 55.033C126.794 42.6096 139.224 40.8339 142.776 49.7059C156.981 42.6096 160.533 56.8151 156.981 71.0143C153.43 85.2134 144.551 90.5533 135.673 81.6684C130.14 85.6581 127.037 85.8129 121.467 83.4441C121.467 83.4441 109.037 92.3226 103.71 81.6684C98.3831 71.0143 112.589 69.2386 112.589 69.2386Z" fill="#0093DD"/>
<path d="M171.187 214.846L215.579 229.569L231.56 224.464L171.187 204.191L159.349 207.743L148.103 211.117L84.1776 230.294L46.8879 241.481V252.135L57.5421 248.939L171.187 214.846Z" fill="#72706F"/>
<path d="M306.14 214.846L419.784 248.584L432.214 252.135V239.705L407.354 232.002L306.14 200.64L261.67 214.846L235.112 223.329L231.56 224.464L215.579 229.569L178.289 241.481V252.135L306.14 214.846Z" fill="#72706F"/>
<path fill-rule="evenodd" clip-rule="evenodd" d="M419.784 248.584L306.14 214.846L178.289 252.135V241.481L215.579 229.569L171.187 214.846L57.5421 248.939V307.182H190.719V319.612H267.074L283.056 305.406V271.668C283.056 269.707 284.646 268.117 286.607 268.117H327.448V305.406H419.784V248.584ZM258.196 269.892V285.874H231.56V269.892H258.196ZM380.719 269.892V285.874H354.083V269.892H380.719Z" fill="#DEDEDD"/>
<path d="M258.196 285.874V269.892H231.56V285.874H258.196Z" fill="white"/>
<path d="M380.719 285.874V269.892H354.083V285.874H380.719Z" fill="white"/>
<path fill-rule="evenodd" clip-rule="evenodd" d="M419.784 248.584L306.14 214.846L178.289 252.136V241.481L215.579 229.569L171.187 214.846L57.542 248.939V307.182H190.719V319.612H267.074L283.055 305.407V271.668C283.055 269.707 284.645 268.117 286.607 268.117H327.448V305.407H419.784V248.584ZM258.196 269.893V285.874H231.56V269.893H258.196ZM380.719 269.893V285.874H354.083V269.893H380.719Z" fill="#DEDEDD"/>
<path d="M258.196 285.874V269.893H231.56V285.874H258.196Z" fill="white"/>
<path d="M380.719 285.874V269.893H354.083V285.874H380.719Z" fill="white"/>
<path fill-rule="evenodd" clip-rule="evenodd" d="M419.784 248.584L306.14 214.846L178.289 252.136V241.481L215.579 229.569L171.187 214.846L57.542 248.939V307.182H190.719V319.612H267.074L283.055 305.407V271.668C283.055 269.707 284.645 268.117 286.607 268.117H327.448V305.407H419.784V248.584ZM258.196 269.893V285.874H231.56V269.893H258.196ZM380.719 269.893V285.874H354.083V269.893H380.719Z" fill="#DEDEDD"/>
<path d="M258.196 285.874V269.893H231.56V285.874H258.196Z" fill="white"/>
<path d="M380.719 285.874V269.893H354.083V285.874H380.719Z" fill="white"/>
<path fill-rule="evenodd" clip-rule="evenodd" d="M171.2 213.915L218.447 229.585L179.177 242.13V250.952L306.142 213.92L420.672 247.922V306.294H326.56V269.005H286.607C285.136 269.005 283.943 270.197 283.943 271.668V305.805L267.412 320.5H189.831V308.07H56.6541V248.279L171.2 213.915ZM306.137 215.771L177.401 253.319V240.833L212.711 229.554L171.173 215.777L58.4297 249.6V306.294H191.607V318.724H266.737L282.167 305.008V271.668C282.167 269.217 284.155 267.229 286.607 267.229H328.336V304.519H418.896V249.247L306.137 215.771ZM230.672 269.005H259.083V286.762H230.672V269.005ZM232.448 270.78V284.986H257.308V270.78H232.448ZM353.195 269.005H381.606V286.762H353.195V269.005ZM354.971 270.78V284.986H379.831V270.78H354.971Z" fill="#72706F"/>
<path d="M171.187 222.462L204.925 233.116L215.579 229.565L171.187 215.359L57.542 249.097V256.2L171.187 222.462Z" fill="#72706F"/>
<path d="M267.074 319.612H419.784V305.406H327.448H283.055L267.074 319.612Z" fill="#72706F"/>
<path d="M57.542 307.182V319.612H190.719V307.182H57.542Z" fill="#72706F"/>
<path fill-rule="evenodd" clip-rule="evenodd" d="M282.718 304.519H420.672V320.5H264.739L282.718 304.519ZM283.393 306.294L269.409 318.724H418.896V306.294H283.393ZM56.6541 306.294H191.607V320.5H56.6541V306.294ZM58.4297 308.07V318.724H189.831V308.07H58.4297Z" fill="#72706F"/>
<path d="M171.187 214.846L215.579 229.569L231.56 224.464L171.187 204.192L159.349 207.743L148.103 211.117L84.1776 230.295L46.8879 241.482V252.136L57.5421 248.939L171.187 214.846Z" fill="#72706F"/>
<path d="M306.14 214.846L419.784 248.584L432.214 252.136V239.706L407.354 232.003L306.14 200.64L261.67 214.846L235.112 223.33L231.56 224.464L215.579 229.569L178.289 241.482V252.136L306.14 214.846Z" fill="#72706F"/>
<path fill-rule="evenodd" clip-rule="evenodd" d="M306.135 199.71L433.102 239.051V253.313L419.54 249.438L419.531 249.435L306.137 215.771L177.402 253.319V240.833L212.711 229.554L171.173 215.777L46 253.329V240.821L171.202 203.26L231.567 223.53L306.135 199.71ZM228.708 224.443L171.171 205.123L47.7757 242.142V250.942L171.2 213.915L215.584 228.636L228.708 224.443ZM306.144 201.571L179.177 242.13V250.952L306.142 213.92L420.028 247.731L420.037 247.733L431.326 250.959V240.36L306.144 201.571Z" fill="black"/>
</svg>
