<svg width="480" height="321" viewBox="0 0 480 321" fill="none" xmlns="http://www.w3.org/2000/svg">
<path d="M137.316 185.764L240.474 135.237L343.632 185.764L349.947 166.816L293.105 138.666V114.185H297.316V109.974H269.947V114.185H274.158V129.282L240.474 112.079L131 166.816L137.316 185.764Z" fill="#72706F"/>
<path d="M272.053 86.8162C265.737 80.4999 265.55 72.9465 272.053 65.7635C253.105 32.0789 312.053 32.0788 293.105 65.7635C299.421 69.9736 301.526 82.6052 293.105 86.8162C293.105 109.974 272.053 109.974 272.053 86.8162Z" fill="#0093DD"/>
<path fill-rule="evenodd" clip-rule="evenodd" d="M161.526 193.158V312.079H319.421V193.158L240.474 155.111L161.526 193.158ZM153.105 187.868V320.5H327.842V187.868L240.474 145.763L153.105 187.868Z" fill="#72706F"/>
<path d="M267.221 213.21C268.976 213.21 270.399 211.787 270.399 210.032C270.399 208.277 268.976 206.855 267.221 206.855C265.466 206.855 264.043 208.277 264.043 210.032C264.043 211.787 265.466 213.21 267.221 213.21Z" fill="#0093DD"/>
<path fill-rule="evenodd" clip-rule="evenodd" d="M240.474 284.711C263.728 284.711 282.579 265.86 282.579 242.605C282.579 231.21 278.052 220.872 270.699 213.292C269.83 214.22 268.592 214.8 267.22 214.8C264.587 214.8 262.453 212.666 262.453 210.033C262.453 208.995 262.785 208.033 263.35 207.25C256.763 202.98 248.908 200.5 240.474 200.5C217.22 200.5 198.369 219.351 198.369 242.605C198.369 265.86 217.22 284.711 240.474 284.711Z" fill="#0093DD"/>
<path fill-rule="evenodd" clip-rule="evenodd" d="M223.262 221.159H231.736V238.636H249.744V221.159H258.218V264.588H249.744V244.992H231.736V264.588H223.262V221.159Z" fill="white"/>
</svg>
