<svg width="32" height="32" viewBox="0 0 32 32" fill="none" xmlns="http://www.w3.org/2000/svg">
<path d="M19.5 28.5417H12.5C6.16498 28.5417 3.45831 25.835 3.45831 19.5V12.5C3.45831 6.16501 6.16498 3.45834 12.5 3.45834H19.5C25.835 3.45834 28.5416 6.16501 28.5416 12.5V19.5C28.5416 25.835 25.835 28.5417 19.5 28.5417ZM12.5 5.20834C7.12165 5.20834 5.20831 7.12168 5.20831 12.5V19.5C5.20831 24.8783 7.12165 26.7917 12.5 26.7917H19.5C24.8783 26.7917 26.7916 24.8783 26.7916 19.5V12.5C26.7916 7.12168 24.8783 5.20834 19.5 5.20834H12.5Z" fill="#72706F"/>
<path d="M16 20.9583C14.6859 20.9553 13.4266 20.4319 12.4974 19.5027C11.5682 18.5735 11.0448 17.3141 11.0417 16C11.0448 14.6859 11.5682 13.4265 12.4974 12.4973C13.4266 11.5681 14.6859 11.0448 16 11.0417C17.3141 11.0448 18.5735 11.5681 19.5027 12.4973C20.4319 13.4265 20.9553 14.6859 20.9584 16C20.9553 17.3141 20.4319 18.5735 19.5027 19.5027C18.5735 20.4319 17.3141 20.9553 16 20.9583ZM16 12.7917C14.2267 12.7917 12.7917 14.2267 12.7917 16C12.7917 17.7733 14.2267 19.2083 16 19.2083C17.7734 19.2083 19.2084 17.7733 19.2084 16C19.2084 14.2267 17.7734 12.7917 16 12.7917ZM21.8334 10.75C21.6817 10.75 21.53 10.715 21.39 10.6567C21.25 10.5983 21.1217 10.5167 21.005 10.4117C20.9 10.295 20.8067 10.1667 20.7484 10.0267C20.6922 9.88573 20.6644 9.73506 20.6667 9.58334C20.6667 9.43168 20.69 9.28001 20.7484 9.14001C20.8184 8.98834 20.9 8.87168 21.005 8.75501C21.0634 8.70834 21.1217 8.65001 21.18 8.61501C21.25 8.56834 21.32 8.53334 21.39 8.51001C21.6026 8.42159 21.8366 8.39767 22.0627 8.44124C22.2888 8.4848 22.4971 8.59392 22.6617 8.75501C22.7667 8.87168 22.8484 8.98834 22.9067 9.14001C22.965 9.28001 23 9.43168 23 9.58334C23 9.73501 22.965 9.88668 22.9067 10.0267C22.8484 10.1667 22.7667 10.295 22.6617 10.4117C22.545 10.5167 22.4167 10.5983 22.2767 10.6567C22.1367 10.715 21.985 10.75 21.8334 10.75Z" fill="#72706F"/>
</svg>
