<svg width="32" height="32" viewBox="0 0 32 32" fill="none" xmlns="http://www.w3.org/2000/svg">
<path d="M15.9988 18.5328C13.5138 18.5328 11.4838 16.5145 11.4838 14.0178C11.4838 11.5212 13.5138 9.5145 15.9988 9.5145C18.4838 9.5145 20.5138 11.5328 20.5138 14.0295C20.5138 16.5262 18.4838 18.5328 15.9988 18.5328ZM15.9988 11.2645C14.4822 11.2645 13.2338 12.5012 13.2338 14.0295C13.2338 15.5578 14.4705 16.7945 15.9988 16.7945C17.5272 16.7945 18.7638 15.5578 18.7638 14.0295C18.7638 12.5012 17.5155 11.2645 15.9988 11.2645Z" fill="#72706F"/>
<path d="M16.0023 28.5533C14.205 28.5499 12.4786 27.8518 11.184 26.605C7.74234 23.2917 3.93901 18.0067 5.37401 11.7183C6.66901 6.01334 11.6507 3.45834 16.0023 3.45834H16.014C20.3657 3.45834 25.3473 6.01334 26.6423 11.73C28.0657 18.0183 24.2623 23.2917 20.8207 26.605C19.5261 27.8518 17.7997 28.5499 16.0023 28.5533ZM16.0023 5.20834C12.6073 5.20834 8.24401 7.01668 7.08901 12.1033C5.82901 17.5983 9.28234 22.335 12.409 25.3333C13.3727 26.2705 14.6639 26.7948 16.0082 26.7948C17.3524 26.7948 18.6437 26.2705 19.6073 25.3333C22.7223 22.335 26.1757 17.5983 24.939 12.1033C23.7723 7.01668 19.3973 5.20834 16.0023 5.20834Z" fill="#72706F"/>
</svg>
