<svg width="32" height="32" viewBox="0 0 32 32" fill="none" xmlns="http://www.w3.org/2000/svg">
<path fill-rule="evenodd" clip-rule="evenodd" d="M22.3583 28.5417C21.04 28.5417 19.6516 28.2267 18.2166 27.62C16.8166 27.025 15.405 26.2083 14.0283 25.2167C12.6633 24.2133 11.345 23.0933 10.0966 21.8683C8.85998 20.62 7.73998 19.3017 6.74831 17.9483C5.74498 16.5483 4.93998 15.1483 4.36831 13.795C3.76165 12.3483 3.45831 10.9483 3.45831 9.63001C3.45831 8.72001 3.62165 7.85668 3.93665 7.05168C4.26331 6.22334 4.78831 5.45334 5.49998 4.78834C6.39831 3.90168 7.42498 3.45834 8.52165 3.45834C8.97665 3.45834 9.44331 3.56334 9.83998 3.75001C10.295 3.96001 10.68 4.27501 10.96 4.69501L13.6666 8.51001C13.9116 8.84834 14.0983 9.17501 14.2266 9.50168C14.3783 9.85168 14.46 10.2017 14.46 10.54C14.46 10.9833 14.3316 11.415 14.0866 11.8233C13.8722 12.1878 13.6093 12.5214 13.305 12.815L12.5116 13.6433C12.5233 13.6783 12.535 13.7017 12.5466 13.725C12.6866 13.97 12.9666 14.39 13.5033 15.02C14.075 15.6733 14.6116 16.2683 15.1483 16.8167C15.8366 17.4933 16.4083 18.03 16.945 18.4733C17.61 19.0333 18.0416 19.3133 18.2983 19.4417L19.1266 18.66C19.4883 18.2983 19.8383 18.03 20.1766 17.855C20.8183 17.4583 21.635 17.3883 22.4516 17.7267C22.755 17.855 23.0816 18.03 23.4316 18.275L27.305 21.0283C27.7366 21.32 28.0516 21.6933 28.2383 22.1367C28.4133 22.58 28.495 22.9883 28.495 23.3967C28.495 23.9567 28.3666 24.5167 28.1216 25.0417C27.8766 25.5667 27.5733 26.0217 27.1883 26.4417C26.5233 27.1767 25.8 27.7017 24.96 28.04C24.155 28.3667 23.28 28.5417 22.3583 28.5417ZM6.71331 6.04834C7.28498 5.48834 7.87998 5.20834 8.52165 5.20834C8.71998 5.20834 8.91831 5.25501 9.10498 5.33668C9.27843 5.41676 9.42743 5.54159 9.53665 5.69834L12.2433 9.52501C12.4066 9.74668 12.535 9.95668 12.6166 10.1433C12.675 10.2833 12.71 10.4233 12.71 10.5167C12.71 10.6333 12.675 10.7617 12.5816 10.9133C12.465 11.1117 12.29 11.3333 12.0566 11.5667L11.1816 12.4767C10.89 12.7683 10.7383 13.1417 10.7383 13.5617C10.7383 13.725 10.7616 13.8767 10.8316 14.145L10.9716 14.495C11.2166 14.95 11.6133 15.4983 12.1616 16.14C12.7566 16.8283 13.3283 17.4467 13.9 18.03C14.635 18.7533 15.2416 19.3133 15.8016 19.7917C16.42 20.3167 16.98 20.7133 17.4583 20.97L17.7733 21.11C18.31 21.3083 19.01 21.2033 19.465 20.76L20.3516 19.885C20.585 19.6517 20.795 19.4767 21.0283 19.36C21.425 19.115 21.53 19.22 21.7866 19.325C21.985 19.4067 22.195 19.5233 22.4283 19.6867L26.3016 22.44C26.4407 22.5244 26.5537 22.6455 26.6283 22.79C26.7216 23 26.7566 23.1867 26.7566 23.3733C26.7566 23.6767 26.6866 23.98 26.5466 24.2717C26.3716 24.645 26.1616 24.96 25.8933 25.2517C25.415 25.7883 24.89 26.1617 24.295 26.4067C22.755 27.0483 20.8883 26.85 18.8933 25.9983C17.61 25.4617 16.315 24.715 15.055 23.7933C13.76 22.8483 12.5 21.775 11.3333 20.62C10.1666 19.4417 9.10498 18.1933 8.17165 16.91C7.23831 15.6267 6.50331 14.3433 5.97831 13.1067C5.46498 11.8933 5.20831 10.715 5.20831 9.63001C5.20831 8.94168 5.32498 8.30001 5.56998 7.69334C5.80331 7.09834 6.17665 6.55001 6.71331 6.04834Z" fill="#72706F"/>
</svg>
