<svg width="32" height="32" viewBox="0 0 32 32" fill="none" xmlns="http://www.w3.org/2000/svg">
<path d="M4.33332 28.5393C4.19858 28.5383 4.06584 28.5066 3.9452 28.4465C3.82456 28.3865 3.71919 28.2998 3.63709 28.1929C3.55499 28.0861 3.49832 27.9619 3.47138 27.8299C3.44445 27.6979 3.44796 27.5615 3.48165 27.431L4.95165 21.936C3.97165 20.116 3.45832 18.0627 3.45832 15.986C3.45832 9.06767 9.08165 3.44434 16 3.44434C22.9183 3.44434 28.5417 9.06767 28.5417 15.986C28.5417 22.9043 22.9183 28.5277 16 28.5277C13.8883 28.5277 11.8233 28.0027 9.97999 26.9993L4.56665 28.5043C4.48499 28.5277 4.41499 28.5393 4.33332 28.5393ZM10.0967 25.191C10.2483 25.191 10.4 25.2377 10.54 25.3077C12.185 26.276 14.075 26.7893 16 26.7893C21.95 26.7893 26.7917 21.9477 26.7917 15.9977C26.7917 10.0477 21.95 5.206 16 5.206C10.05 5.206 5.20832 10.0477 5.20832 15.9977C5.20832 17.8993 5.70999 19.7543 6.65499 21.3877C6.77165 21.586 6.80665 21.831 6.74832 22.0527L5.58165 26.416L9.87499 25.226C9.94499 25.2027 10.0267 25.191 10.0967 25.191Z" fill="#72706F"/>
<path d="M19.1967 22.72C18.4734 22.72 17.7267 22.5567 16.945 22.2183C16.21 21.9033 15.475 21.4833 14.7634 20.9583C14.0634 20.445 13.375 19.8617 12.745 19.2317C12.115 18.59 11.5317 17.9133 11.0184 17.2133C10.4934 16.4783 10.0734 15.755 9.77003 15.0433C9.44336 14.2733 9.28003 13.515 9.28003 12.7917C9.28003 12.2783 9.37336 11.7883 9.54836 11.3333C9.73503 10.855 10.0384 10.4233 10.435 10.05C11.1817 9.315 12.255 9.04667 13.1067 9.455C13.3984 9.58333 13.6434 9.79333 13.83 10.0733L15.1834 11.975C15.3234 12.1617 15.4284 12.36 15.51 12.5583C15.6034 12.7917 15.6617 13.025 15.6617 13.2467C15.6617 13.55 15.58 13.8533 15.4167 14.1217C15.3117 14.2967 15.16 14.5067 14.9617 14.705L14.81 14.8683C14.88 14.9617 14.9617 15.0783 15.09 15.2183C15.335 15.4983 15.6034 15.8017 15.895 16.0933C16.1867 16.3733 16.4784 16.6533 16.77 16.8983C16.91 17.015 17.0267 17.1083 17.12 17.1667L17.2834 17.0033C17.4934 16.7933 17.7034 16.63 17.9134 16.525C18.2984 16.28 18.8934 16.2217 19.4184 16.4433C19.605 16.5133 19.7917 16.6183 19.99 16.7583L21.9384 18.135C22.2067 18.3217 22.4167 18.5783 22.5567 18.87C22.6734 19.1617 22.72 19.4183 22.72 19.6867C22.72 20.0367 22.6384 20.375 22.4867 20.7017C22.335 21.005 22.16 21.2733 21.95 21.5183C21.5767 21.9267 21.145 22.23 20.6784 22.4283C20.2117 22.6267 19.71 22.72 19.1967 22.72ZM12.255 11.03C12.185 11.03 11.9517 11.03 11.66 11.3217C11.4384 11.5317 11.2867 11.7533 11.1817 11.9983C11.0767 12.2433 11.03 12.5233 11.03 12.8033C11.03 13.2933 11.1467 13.8183 11.38 14.3783C11.625 14.9617 11.9867 15.58 12.43 16.1983C12.885 16.8167 13.3984 17.435 13.97 18.0067C14.5417 18.5667 15.1484 19.0917 15.7784 19.5583C16.385 20.0017 17.0034 20.3517 17.6217 20.62C18.5084 21.005 19.325 21.0983 19.99 20.8183C20.2234 20.725 20.4334 20.5617 20.6434 20.3517C20.7484 20.235 20.83 20.1183 20.9 19.9667C20.935 19.885 20.9584 19.7917 20.9584 19.71C20.9584 19.6867 20.9584 19.6517 20.9234 19.5817L18.975 18.2283C18.9037 18.1747 18.8252 18.1315 18.7417 18.1C18.695 18.1233 18.625 18.1583 18.4967 18.2867L18.0534 18.73C17.715 19.0683 17.1784 19.1617 16.7467 19.01L16.5367 18.9167C16.2684 18.7767 15.965 18.5667 15.6267 18.275C15.3 17.995 14.985 17.7033 14.6467 17.3767C14.32 17.0383 14.0284 16.7233 13.7484 16.3967C13.5049 16.1168 13.2863 15.8162 13.095 15.4983L12.9667 15.195C12.934 15.0773 12.9183 14.9555 12.92 14.8333C12.92 14.5067 13.0367 14.215 13.2584 13.9817L13.7017 13.5267C13.83 13.3983 13.8767 13.3283 13.9 13.2817C13.8621 13.199 13.8151 13.1207 13.76 13.0483L12.395 11.1233L12.255 11.03Z" fill="#72706F"/>
</svg>
