<svg width="512" height="512" viewBox="0 0 512 512" fill="none" xmlns="http://www.w3.org/2000/svg">
<g clip-path="url(#clip0_1_24)">
<path d="M418.616 77.2831C429.287 77.2831 437.937 68.6329 437.937 57.9624C437.937 47.2918 429.287 38.6416 418.616 38.6416C407.946 38.6416 399.296 47.2918 399.296 57.9624C399.296 68.6329 407.946 77.2831 418.616 77.2831Z" fill="#0093DD"/>
<path fill-rule="evenodd" clip-rule="evenodd" d="M256 512C397.386 512 512 397.386 512 256C512 186.717 484.478 123.862 439.769 77.7731C434.482 83.4167 426.96 86.9434 418.616 86.9434C402.609 86.9434 389.635 73.9682 389.635 57.9623C389.635 51.6466 391.654 45.8027 395.084 41.0418C355.038 15.0776 307.28 0 256 0C114.615 0 0 114.615 0 256C0 397.386 114.615 512 256 512Z" fill="#0093DD"/>
<path fill-rule="evenodd" clip-rule="evenodd" d="M151.346 125.585H202.868V231.849H312.352V125.585H363.874V389.635H312.352V270.491H202.868V389.635H151.346V125.585Z" fill="white"/>
</g>
<defs>
<clipPath id="clip0_1_24">
<rect width="512" height="512" fill="white"/>
</clipPath>
</defs>
</svg>
