<svg width="512" height="512" viewBox="0 0 512 512" fill="none" xmlns="http://www.w3.org/2000/svg">
<path d="M363.992 86.8171C371.078 86.8171 376.822 81.0728 376.822 73.9869C376.822 66.901 371.078 61.1567 363.992 61.1567C356.906 61.1567 351.161 66.901 351.161 73.9869C351.161 81.0728 356.906 86.8171 363.992 86.8171Z" fill="#0093DD"/>
<path fill-rule="evenodd" clip-rule="evenodd" d="M256 375.5C349.889 375.5 426 299.389 426 205.5C426 159.492 407.723 117.752 378.034 87.1462C374.523 90.8939 369.528 93.2358 363.987 93.2358C353.358 93.2358 344.742 84.6195 344.742 73.9906C344.742 69.7966 346.083 65.9159 348.36 62.7543C321.768 45.5125 290.053 35.5 256 35.5C162.112 35.5 86 111.612 86 205.5C86 299.389 162.112 375.5 256 375.5Z" fill="#0093DD"/>
<path fill-rule="evenodd" clip-rule="evenodd" d="M186.51 118.906H220.724V189.472H293.429V118.906H327.643V294.251H293.429V215.132H220.724V294.251H186.51V118.906Z" fill="white"/>
<path d="M98.5909 461.5V414.955H107.023V434.659H128.591V414.955H137.045V461.5H128.591V441.727H107.023V461.5H98.5909ZM150.966 474.591C149.845 474.591 148.807 474.5 147.852 474.318C146.913 474.152 146.163 473.955 145.602 473.727L147.511 467.318C148.708 467.667 149.777 467.833 150.716 467.818C151.655 467.803 152.481 467.508 153.193 466.932C153.92 466.371 154.534 465.432 155.034 464.114L155.739 462.227L143.08 426.591H151.807L159.852 452.955H160.216L168.284 426.591H177.034L163.057 465.727C162.405 467.576 161.542 469.159 160.466 470.477C159.39 471.811 158.072 472.826 156.511 473.523C154.966 474.235 153.117 474.591 150.966 474.591ZM194.494 462.114C191.752 462.114 189.297 461.409 187.131 460C184.964 458.591 183.252 456.545 181.994 453.864C180.737 451.182 180.108 447.924 180.108 444.091C180.108 440.212 180.744 436.939 182.017 434.273C183.305 431.591 185.04 429.568 187.222 428.205C189.403 426.826 191.835 426.136 194.517 426.136C196.563 426.136 198.244 426.485 199.562 427.182C200.881 427.864 201.926 428.689 202.699 429.659C203.472 430.614 204.07 431.515 204.494 432.364H204.835V414.955H213.085V461.5H204.994V456H204.494C204.07 456.848 203.456 457.75 202.653 458.705C201.85 459.644 200.79 460.447 199.472 461.114C198.153 461.78 196.494 462.114 194.494 462.114ZM196.79 455.364C198.532 455.364 200.017 454.894 201.244 453.955C202.472 453 203.403 451.674 204.04 449.977C204.676 448.28 204.994 446.303 204.994 444.045C204.994 441.788 204.676 439.826 204.04 438.159C203.419 436.492 202.494 435.197 201.267 434.273C200.055 433.348 198.563 432.886 196.79 432.886C194.956 432.886 193.426 433.364 192.199 434.318C190.972 435.273 190.047 436.591 189.426 438.273C188.805 439.955 188.494 441.879 188.494 444.045C188.494 446.227 188.805 448.174 189.426 449.886C190.063 451.583 190.994 452.924 192.222 453.909C193.464 454.879 194.987 455.364 196.79 455.364ZM221.852 461.5V426.591H229.83V432.409H230.193C230.83 430.394 231.92 428.841 233.466 427.75C235.027 426.644 236.807 426.091 238.807 426.091C239.261 426.091 239.769 426.114 240.33 426.159C240.905 426.189 241.383 426.242 241.761 426.318V433.886C241.413 433.765 240.86 433.659 240.102 433.568C239.36 433.462 238.64 433.409 237.943 433.409C236.443 433.409 235.095 433.735 233.898 434.386C232.716 435.023 231.784 435.909 231.102 437.045C230.42 438.182 230.08 439.492 230.08 440.977V461.5H221.852ZM261.017 462.182C257.608 462.182 254.653 461.432 252.153 459.932C249.653 458.432 247.714 456.333 246.335 453.636C244.972 450.939 244.29 447.788 244.29 444.182C244.29 440.576 244.972 437.417 246.335 434.705C247.714 431.992 249.653 429.886 252.153 428.386C254.653 426.886 257.608 426.136 261.017 426.136C264.426 426.136 267.381 426.886 269.881 428.386C272.381 429.886 274.313 431.992 275.676 434.705C277.055 437.417 277.744 440.576 277.744 444.182C277.744 447.788 277.055 450.939 275.676 453.636C274.313 456.333 272.381 458.432 269.881 459.932C267.381 461.432 264.426 462.182 261.017 462.182ZM261.062 455.591C262.911 455.591 264.456 455.083 265.699 454.068C266.941 453.038 267.866 451.659 268.472 449.932C269.093 448.205 269.403 446.28 269.403 444.159C269.403 442.023 269.093 440.091 268.472 438.364C267.866 436.621 266.941 435.235 265.699 434.205C264.456 433.174 262.911 432.659 261.062 432.659C259.169 432.659 257.593 433.174 256.335 434.205C255.093 435.235 254.161 436.621 253.54 438.364C252.934 440.091 252.631 442.023 252.631 444.159C252.631 446.28 252.934 448.205 253.54 449.932C254.161 451.659 255.093 453.038 256.335 454.068C257.593 455.083 259.169 455.591 261.062 455.591ZM323.341 414.955V461.5H315.841L293.909 429.795H293.523V461.5H285.091V414.955H292.636L314.545 446.682H314.955V414.955H323.341ZM332.528 461.5V414.955H349.983C353.559 414.955 356.559 415.576 358.983 416.818C361.422 418.061 363.263 419.803 364.506 422.045C365.763 424.273 366.392 426.871 366.392 429.841C366.392 432.826 365.756 435.417 364.483 437.614C363.225 439.795 361.369 441.485 358.915 442.682C356.46 443.864 353.445 444.455 349.869 444.455H337.438V437.455H348.733C350.824 437.455 352.536 437.167 353.869 436.591C355.203 436 356.188 435.144 356.824 434.023C357.475 432.886 357.801 431.492 357.801 429.841C357.801 428.189 357.475 426.78 356.824 425.614C356.172 424.432 355.18 423.538 353.847 422.932C352.513 422.311 350.794 422 348.688 422H340.96V461.5H332.528ZM356.574 440.409L368.097 461.5H358.688L347.369 440.409H356.574ZM405.335 429.818C404.956 428.591 404.434 427.492 403.767 426.523C403.116 425.538 402.328 424.697 401.403 424C400.494 423.303 399.449 422.78 398.267 422.432C397.085 422.068 395.797 421.886 394.403 421.886C391.903 421.886 389.676 422.515 387.722 423.773C385.767 425.03 384.229 426.879 383.108 429.318C382.002 431.742 381.449 434.697 381.449 438.182C381.449 441.697 382.002 444.674 383.108 447.114C384.214 449.553 385.752 451.409 387.722 452.682C389.691 453.939 391.979 454.568 394.585 454.568C396.949 454.568 398.994 454.114 400.722 453.205C402.464 452.295 403.805 451.008 404.744 449.341C405.684 447.659 406.153 445.689 406.153 443.432L408.062 443.727H395.426V437.136H414.312V442.727C414.312 446.712 413.464 450.159 411.767 453.068C410.07 455.977 407.737 458.22 404.767 459.795C401.797 461.356 398.388 462.136 394.54 462.136C390.252 462.136 386.487 461.174 383.244 459.25C380.017 457.311 377.494 454.561 375.676 451C373.873 447.424 372.972 443.182 372.972 438.273C372.972 434.515 373.502 431.159 374.562 428.205C375.638 425.25 377.138 422.742 379.062 420.682C380.987 418.606 383.244 417.03 385.835 415.955C388.426 414.864 391.244 414.318 394.29 414.318C396.866 414.318 399.267 414.697 401.494 415.455C403.722 416.197 405.699 417.258 407.426 418.636C409.169 420.015 410.6 421.652 411.722 423.545C412.843 425.439 413.578 427.53 413.926 429.818H405.335Z" fill="black"/>
</svg>
